<svg xmlns="http://www.w3.org/2000/svg" width="37.84" height="37.84" viewBox="0 0 37.84 37.84">
  <g id="Group_1054" data-name="Group 1054" transform="translate(-318.08 -1437.08)">
    <rect id="Rectangle_576" data-name="Rectangle 576" width="37.84" height="37.84" transform="translate(318.08 1437.08)" fill="none"/>
    <g id="nuclear-plant" transform="translate(323.529 1422.635)">
      <g id="Group_1045" data-name="Group 1045" transform="translate(0 21)">
        <g id="Group_1044" data-name="Group 1044">
          <path id="Path_1802" data-name="Path 1802" d="M379.683,111A3.688,3.688,0,0,0,376,114.683h1.579a2.107,2.107,0,0,1,2.1-2.1,1.991,1.991,0,0,1,1.557.822,3.8,3.8,0,0,0,1.916,1.2v-1.664a3.316,3.316,0,0,1-.8-.658A3.5,3.5,0,0,0,379.683,111Z" transform="translate(-356.215 -106.264)" fill="#174159"/>
          <path id="Path_1803" data-name="Path 1803" d="M135.482,22.282a1.884,1.884,0,0,1-3.113,0,3.422,3.422,0,0,0-5.341,0,1.991,1.991,0,0,1-1.557.822,1.966,1.966,0,0,1-1.545-.82A3.47,3.47,0,0,0,121.262,21,5.268,5.268,0,0,0,116,26.262V27.84h1.579V26.262a3.688,3.688,0,0,1,3.683-3.683,1.966,1.966,0,0,1,1.545.82,3.413,3.413,0,0,0,5.334,0,1.884,1.884,0,0,1,3.113,0,3.422,3.422,0,0,0,5.341,0c.084-.084.164-.163.241-.236v-1.9A4.451,4.451,0,0,0,135.482,22.282Z" transform="translate(-109.896 -21)" fill="#174159"/>
          <path id="Path_1804" data-name="Path 1804" d="M22.942,183.368v-.789H16.109A40.043,40.043,0,0,0,18.441,195.3l.156.436H16.921a41.628,41.628,0,0,1-2.4-13.944V181h-10v.789a41.627,41.627,0,0,1-2.4,13.944H0v1.579H26.941v-1.579H24.816A41.671,41.671,0,0,1,22.942,183.368Z" transform="translate(0 -172.581)" fill="#174159"/>
        </g>
      </g>
    </g>
  </g>
</svg>
