<svg xmlns="http://www.w3.org/2000/svg" width="37.84" height="37.84" viewBox="0 0 37.84 37.84">
  <g id="Group_1040" data-name="Group 1040" transform="translate(-318.08 -1437.08)">
    <rect id="Rectangle_576" data-name="Rectangle 576" width="37.84" height="37.84" transform="translate(318.08 1437.08)" fill="none"/>
    <g id="tag" transform="matrix(0.966, 0.259, -0.259, 0.966, 265.109, 1425.335)">
      <g id="Group_1049" data-name="Group 1049" transform="translate(68.498 -2)">
        <path id="Path_1814" data-name="Path 1814" d="M243.11,332.541a.813.813,0,1,0,1.15,0A.807.807,0,0,0,243.11,332.541Z" transform="translate(-233.71 -314.532)" fill="#174159"/>
        <path id="Path_1815" data-name="Path 1815" d="M147.459,270.712a.813.813,0,1,0,0,1.15A.816.816,0,0,0,147.459,270.712Z" transform="translate(-142.086 -256.013)" fill="#174159"/>
        <path id="Path_1816" data-name="Path 1816" d="M89.838,1.658C89.586,1.048,88.816.021,86.475,0H86.4a13.146,13.146,0,0,0-4.834,1.075c-.31.128-.61.262-.9.406l-.016-.016a2.483,2.483,0,0,0-3.459,0L72.476,6.047a3.211,3.211,0,0,0-.978,2.31V23.879a2.268,2.268,0,0,0,2.267,2.267H84.085a2.268,2.268,0,0,0,2.267-2.267V8.357a3.146,3.146,0,0,0-.267-1.278A11.6,11.6,0,0,0,88.624,5.2C90.26,3.54,90.089,2.267,89.838,1.658ZM74.332,15.276a1.962,1.962,0,1,1,1.962,1.962A1.967,1.967,0,0,1,74.332,15.276ZM76,20.409a.482.482,0,0,1-.064-.674l5.154-6.208a.479.479,0,0,1,.738.61l-5.154,6.208A.482.482,0,0,1,76,20.409Zm5.475.139a1.962,1.962,0,1,1,1.962-1.962A1.967,1.967,0,0,1,81.475,20.548ZM83.651,6.133a12.825,12.825,0,0,1-2.914.834c0,.043.005.08.005.123a1.877,1.877,0,1,1-.369-1.117,13.219,13.219,0,0,0,2.738-.8c.326-.134.631-.273.92-.417L82.138,2.909c.053-.021.107-.043.16-.07a11.388,11.388,0,0,1,4.106-.93h.053c1.128.011,1.551.315,1.615.476C88.271,2.877,87.015,4.748,83.651,6.133Z" transform="translate(-71.498)" fill="#174159"/>
        <path id="Path_1817" data-name="Path 1817" d="M3.988,11.569A24.471,24.471,0,0,0,1.48,15.031l.506,5.78S4.325,23.492,4.819,23.6s4.712.674,5.34,0a25.136,25.136,0,0,0,2.58-2.792,44.6,44.6,0,0,0,.411-4.877c-.023-.6-.76-3.659-.76-3.659a28.542,28.542,0,0,0-3.9-1.231c-.642,0-4.11.526-4.11.526Z" fill="#174159"/>
      </g>
    </g>
  </g>
</svg>
