<svg xmlns="http://www.w3.org/2000/svg" width="37.84" height="37.84" viewBox="0 0 37.84 37.84">
  <g id="Group_1046" data-name="Group 1046" transform="translate(-318.08 -1437.08)">
    <rect id="Rectangle_576" data-name="Rectangle 576" width="37.84" height="37.84" transform="translate(318.08 1437.08)" fill="none"/>
    <g id="multiple-users-silhouette" transform="translate(324.929 1439.155)">
      <path id="Path_1805" data-name="Path 1805" d="M14.647,9.854A4.411,4.411,0,0,1,16.7,13.131a3.558,3.558,0,1,0-2.053-3.277Zm-2.332,7.289a3.56,3.56,0,1,0-3.56-3.56A3.56,3.56,0,0,0,12.315,17.143Zm1.51.243H10.8a4.563,4.563,0,0,0-4.558,4.558v3.694l.009.058.254.08a20.747,20.747,0,0,0,6.2,1,12.723,12.723,0,0,0,5.411-1.016l.238-.12h.025V21.943A4.562,4.562,0,0,0,13.825,17.385Zm5.89-3.675h-3a4.387,4.387,0,0,1-1.354,3.056,5.416,5.416,0,0,1,3.868,5.183v1.138a12.266,12.266,0,0,0,4.777-1l.238-.121h.025v-3.7A4.563,4.563,0,0,0,19.715,13.71ZM6.069,13.468a3.536,3.536,0,0,0,1.893-.549,4.406,4.406,0,0,1,1.656-2.81c0-.067.01-.133.01-.2a3.56,3.56,0,1,0-3.559,3.559Zm3.2,3.3a4.39,4.39,0,0,1-1.353-3.039c-.111-.008-.221-.017-.334-.017H4.558A4.563,4.563,0,0,0,0,18.268v3.695l.009.057.254.08a21.37,21.37,0,0,0,5.133.965V21.949A5.417,5.417,0,0,1,9.266,16.766Z" fill="#174159"/>
    </g>
  </g>
</svg>
