<svg xmlns="http://www.w3.org/2000/svg" width="37.84" height="37.84" viewBox="0 0 37.84 37.84">
  <g id="Group_1041" data-name="Group 1041" transform="translate(-318.08 -1437.08)">
    <rect id="Rectangle_576" data-name="Rectangle 576" width="37.84" height="37.84" transform="translate(318.08 1437.08)" fill="none"/>
    <g id="cart" transform="translate(324.083 1408.915)">
      <g id="Group_1042" data-name="Group 1042" transform="translate(0 36.543)">
        <path id="Path_1798" data-name="Path 1798" d="M365.446,367.37a1.917,1.917,0,1,0,.562-1.355A1.847,1.847,0,0,0,365.446,367.37Z" transform="translate(-346.279 -348.202)" fill="#174159"/>
        <path id="Path_1799" data-name="Path 1799" d="M24.632,38.744a.921.921,0,0,0-.674-.285H5.975q-.015-.1-.068-.382t-.082-.442a2.642,2.642,0,0,0-.112-.4,1.194,1.194,0,0,0-.195-.367.956.956,0,0,0-.3-.232.914.914,0,0,0-.427-.1H.959a.922.922,0,0,0-.674.284.94.94,0,0,0,0,1.348.921.921,0,0,0,.674.284H4.013l2.65,12.324q-.03.06-.307.569t-.442.891a1.644,1.644,0,0,0-.165.592.971.971,0,0,0,.958.958H22.041a.959.959,0,0,0,0-1.917H8.266a2.891,2.891,0,0,0,.359-.958,1.618,1.618,0,0,0-.037-.33q-.038-.179-.09-.4T8.43,49.87l15.633-1.827a.93.93,0,0,0,.614-.322.944.944,0,0,0,.239-.636V39.418A.922.922,0,0,0,24.632,38.744Z" transform="translate(0 -36.543)" fill="#174159"/>
        <path id="Path_1800" data-name="Path 1800" d="M109.632,367.37a1.917,1.917,0,1,0,.561-1.355A1.845,1.845,0,0,0,109.632,367.37Z" transform="translate(-103.882 -348.202)" fill="#174159"/>
        <g id="Path_1801" data-name="Path 1801" transform="translate(-175.996 -0.267)" fill="#174159">
          <path d="M 191.3070220947266 9.354538917541504 C 190.8665008544922 9.354538917541504 190.4564666748047 9.15657901763916 190.1820831298828 8.811408996582031 L 190.1802978515625 8.809179306030273 L 190.1785430908203 8.806939125061035 L 187.3808441162109 5.246236324310303 C 187.0375518798828 4.813597679138184 186.9729766845703 4.236128330230713 187.2125549316406 3.737669229507446 C 187.4535064697266 3.236329317092896 187.9486541748047 2.924889326095581 188.5047454833984 2.924889326095581 L 188.6075286865234 2.924889326095581 L 188.6075286865234 0.2827692329883575 C 188.6075286865234 -0.4245507717132568 189.1829986572266 -1.000000715255737 189.8903350830078 -1.000000715255737 L 192.7180633544922 -1.000000715255737 C 193.4253692626953 -1.000000715255737 194.0008087158203 -0.4245507717132568 194.0008087158203 0.2827692329883575 L 194.0008087158203 2.930549144744873 L 194.1092987060547 2.930549144744873 C 194.6654052734375 2.930549144744873 195.1605377197266 3.241989135742188 195.4014892578125 3.74333930015564 C 195.6412200927734 4.242134094238281 195.5764007568359 4.820028305053711 195.2324829101562 5.252773284912109 L 192.4350128173828 8.807549476623535 C 192.1575775146484 9.156569480895996 191.74755859375 9.354538917541504 191.3070220947266 9.354538917541504 Z" stroke="none"/>
          <path d="M 191.3070220947266 8.354538917541504 C 191.4342651367188 8.354538917541504 191.5615081787109 8.299399375915527 191.649169921875 8.189119338989258 L 194.4486236572266 4.631829261779785 C 194.6748504638672 4.349049091339111 194.4712371826172 3.930549144744873 194.1092987060547 3.930549144744873 L 193.0008087158203 3.930549144744873 L 193.0008087158203 0.2827692329883575 C 193.0008087158203 0.1244192272424698 192.8764190673828 -7.704162499067024e-07 192.7180633544922 -7.704162499067024e-07 L 189.8903350830078 -7.704162499067024e-07 C 189.7319641113281 -7.704162499067024e-07 189.6075286865234 0.1244192272424698 189.6075286865234 0.2827692329883575 L 189.6075286865234 3.924889326095581 L 188.5047454833984 3.924889326095581 C 188.1427917480469 3.924889326095581 187.9391937255859 4.343399047851562 188.1654052734375 4.626169204711914 L 190.9648590087891 8.189119338989258 C 191.0525360107422 8.299399375915527 191.1797790527344 8.354538917541504 191.3070220947266 8.354538917541504 M 191.3070220947266 10.3545389175415 C 190.5598449707031 10.3545389175415 189.8645172119141 10.0189094543457 189.3992919921875 9.433709144592285 L 189.395751953125 9.429248809814453 L 189.3922271728516 9.424758911132812 L 186.5955200195312 5.865310668945312 C 186.0138244628906 5.130383014678955 185.9046783447266 4.15037727355957 186.3112487792969 3.304479122161865 C 186.5839538574219 2.737103223800659 187.0484008789062 2.313046455383301 187.6075286865234 2.093404293060303 L 187.6075286865234 0.2827692329883575 C 187.6075286865234 -0.9759507775306702 188.631591796875 -2.000000715255737 189.8903350830078 -2.000000715255737 L 192.7180633544922 -2.000000715255737 C 193.9767761230469 -2.000000715255737 195.0008087158203 -0.9759507775306702 195.0008087158203 0.2827692329883575 L 195.0008087158203 2.096832513809204 C 195.5624847412109 2.315831899642944 196.0291900634766 2.740854978561401 196.3027954101562 3.310159206390381 C 196.7098388671875 4.157062530517578 196.6000061035156 5.138286590576172 196.0165100097656 5.873488903045654 L 193.2208557128906 9.425969123840332 L 193.2178344726562 9.4298095703125 L 193.2148132324219 9.433619499206543 C 192.7495880126953 10.01887893676758 192.0542297363281 10.3545389175415 191.3070220947266 10.3545389175415 Z" stroke="none" fill="#fff"/>
        </g>
      </g>
    </g>
  </g>
</svg>
