<svg xmlns="http://www.w3.org/2000/svg" width="37.84" height="37.84" viewBox="0 0 37.84 37.84">
  <g id="Group_1056" data-name="Group 1056" transform="translate(-317.08 -1438.08)">
    <rect id="Rectangle_579" data-name="Rectangle 579" width="37.84" height="37.84" transform="translate(317.08 1438.08)" fill="none"/>
    <g id="noun_office_chair_1603046" data-name="noun_office chair_1603046" transform="translate(280.004 1434.288)">
      <g id="Group_429" data-name="Group 429" transform="translate(45.048 9.525)">
        <path id="Path_1653" data-name="Path 1653" d="M81.61,42.758a2.484,2.484,0,0,0-1.874-2.033h-.026a2.439,2.439,0,0,0-1.663.211,2.343,2.343,0,0,0-1.03,1.056,1.756,1.756,0,0,0-.185.634l-.053.475q-.04.436-.079.792c0,.053.158.132.37.158s.343.026.343,0a7.23,7.23,0,0,0,.29-.739l.132-.449a3.533,3.533,0,0,1,.158-.317,1.223,1.223,0,0,1,1.346-.475A1.123,1.123,0,0,1,79.762,44a1.262,1.262,0,0,1-.739.264H78.97a.627.627,0,0,0-.634.528c-.158.845-.317,1.61-.422,2.3a1.325,1.325,0,0,1-.053.317.926.926,0,0,1-.132.211.623.623,0,0,1-.422.185.631.631,0,0,0-.132.37c-.026.185-.026.317.026.343a1.287,1.287,0,0,0,1.03-.132,1.584,1.584,0,0,0,.5-.422A1.773,1.773,0,0,0,79,47.351c.158-.528.343-1.109.528-1.742A2.514,2.514,0,0,0,81.61,42.758Z" transform="translate(-57.68 -30.667)" fill="#174159" stroke="#174159" stroke-width="1"/>
        <path id="Path_1654" data-name="Path 1654" d="M9.495,43.2l-.053-.475a2.873,2.873,0,0,0-.185-.634,2.343,2.343,0,0,0-1.03-1.056,2.4,2.4,0,0,0-1.663-.211,2.428,2.428,0,0,0-1.478,1,2.46,2.46,0,0,0,.634,3.432,2.931,2.931,0,0,0,1.03.422c.185.634.343,1.214.528,1.742a1.773,1.773,0,0,0,.264.607,1.371,1.371,0,0,0,.5.449,1.4,1.4,0,0,0,1.03.132c.053-.026.079-.211.026-.4a.813.813,0,0,0-.132-.317.868.868,0,0,1-.422-.185.575.575,0,0,1-.132-.211,1.325,1.325,0,0,1-.053-.317c-.106-.686-.238-1.452-.422-2.3a.627.627,0,0,0-.634-.528H7.251a1.262,1.262,0,0,1-.739-.264A1.1,1.1,0,0,1,6.3,42.647a1.054,1.054,0,0,1,.634-.475A1.088,1.088,0,0,1,7.7,42.2a1.24,1.24,0,0,1,.581.449.892.892,0,0,1,.158.317l.132.449c.106.29.211.528.29.739.026.053.211.053.4,0s.317-.106.317-.158Q9.534,43.637,9.495,43.2Z" transform="translate(-4.65 -30.741)" fill="#174159" stroke="#174159" stroke-width="1"/>
        <path id="Path_1655" data-name="Path 1655" d="M23.965,7.1l.026.264.079.528c.4,2.825.766,5.253,1.056,6.837.026.106.211.185.4.158.211-.026.317-.132.317-.238-.079-1.637-.264-4.065-.528-6.917l-.053-.528-.026-.264c0-.079-.026-.185-.026-.264a2.468,2.468,0,0,1,.106-.871,2.34,2.34,0,0,1,1.109-1.346,2.4,2.4,0,0,1,.871-.264h7.181a2.561,2.561,0,0,1,.871.264,2.34,2.34,0,0,1,1.109,1.346,1.938,1.938,0,0,1,.106.871.366.366,0,0,1,0,.238l-.026.264-.053.528c-.264,2.851-.449,5.28-.528,6.917,0,.106.158.211.343.238s.317-.053.343-.158c.317-1.61.686-4.013,1.056-6.837l.079-.528.026-.264c0-.079.026-.185.026-.29a3.306,3.306,0,0,0-.132-1.346A3.681,3.681,0,0,0,34.551,2.8H27.5l-.37.026a3.644,3.644,0,0,0-3.141,2.64,5.641,5.641,0,0,0-.053,1.346C23.939,6.918,23.965,7,23.965,7.1Z" transform="translate(-18.831 -2.8)" fill="#174159" stroke="#174159" stroke-width="1"/>
        <path id="Path_1656" data-name="Path 1656" d="M36.625,52.073a2.6,2.6,0,0,0-1.267-.686c-.132-.026-.238.132-.264.343s0,.343.079.37a1.935,1.935,0,0,1,.792.581,1.658,1.658,0,0,1,.37,1.056.731.731,0,0,1-.026.238.426.426,0,0,1-.106.185.578.578,0,0,1-.37.211h-.766l-.95-.026c-2.587-.053-5.517-.079-8.448-.079h-.713c-.026,0-.053-.026-.079-.026a.381.381,0,0,1-.238-.29.643.643,0,0,1,0-.317,1.307,1.307,0,0,1,.106-.343,1.574,1.574,0,0,1,.422-.581,1.439,1.439,0,0,1,.634-.317c.343-.079.66-.132,1-.185.66-.106,1.294-.185,1.927-.238a29.689,29.689,0,0,1,6.125.079c.106,0,.211-.132.238-.343s-.026-.317-.106-.343a21.292,21.292,0,0,0-6.336-.634,18.168,18.168,0,0,0-2.033.185c-.343.053-.713.106-1.056.158a2.853,2.853,0,0,0-2.138,1.69,2.963,2.963,0,0,0-.211.686,1.623,1.623,0,0,0-.026.37,1.856,1.856,0,0,0,1.082,1.8,2.594,2.594,0,0,0,.422.132.731.731,0,0,0,.238.026h.739c1.4,0,2.825,0,4.2-.026a7.922,7.922,0,0,0-.026,3.432c-.9.053-1.663.106-2.244.185-.053,0-.106.106-.106.264-.026-.158-.079-.264-.132-.264a1.7,1.7,0,0,0-1,.343,1.769,1.769,0,0,0-.686,1.135,1.806,1.806,0,0,0,.475,1.478,1.944,1.944,0,0,0,.713.5,1.244,1.244,0,0,0,.449.106l.211.026h.158c1.716.053,3.7.079,5.649.079a2.01,2.01,0,0,0,.185-4.013h-.422l-1.32.053-.792.026a8.1,8.1,0,0,0-.053-3.379c1.109-.026,2.191-.026,3.221-.053l.95-.026h.686a1.545,1.545,0,0,0,.343-.053,1.722,1.722,0,0,0,1.03-.739,2.241,2.241,0,0,0,.238-.581,1.957,1.957,0,0,0,.026-.554A3.082,3.082,0,0,0,36.625,52.073Zm-4.884,8.21,1.32.053h.264a.375.375,0,0,1,.158.053.67.67,0,0,1,.264.211.609.609,0,0,1,.053.634.662.662,0,0,1-.528.343c-1.98,0-3.933.026-5.649.079h-.264a.335.335,0,0,1-.158-.026.826.826,0,0,1-.264-.132.8.8,0,0,1-.264-.581.923.923,0,0,1,.211-.581,1.1,1.1,0,0,1,.475-.29c.026,0,.079-.132.079-.264,0,.158.053.264.106.264C28.547,60.151,30.026,60.23,31.742,60.283Z" transform="translate(-18.291 -38.055)" fill="#174159" stroke="#174159" stroke-width="1"/>
        <path id="Path_1658" data-name="Path 1658" d="M7.316,13.117,6.369,7.132l.557-5.767S10.718.988,12.375.988s5.57.467,5.593.7.762,3.36.73,3.991-.738,4.925-.73,5.362a15.156,15.156,0,0,1-1.1,2.621H9.845Z" fill="none"/>
      </g>
    </g>
  </g>
</svg>
