<svg xmlns="http://www.w3.org/2000/svg" width="37.84" height="37.84" viewBox="0 0 37.84 37.84">
  <g id="Group_1055" data-name="Group 1055" transform="translate(-320 -1431)">
    <rect id="Rectangle_578" data-name="Rectangle 578" width="37.84" height="37.84" transform="translate(320 1431)" fill="none"/>
    <g id="television" transform="translate(325 1381)">
      <g id="Group_198" data-name="Group 198" transform="translate(0 58)">
        <path id="Path_299" data-name="Path 299" d="M328.976,198h-7.364a1.113,1.113,0,0,0-1.112,1.112v11.055a1.113,1.113,0,0,0,1.112,1.112h7.364a1.113,1.113,0,0,0,1.112-1.112v-11.05A1.114,1.114,0,0,0,328.976,198Zm-5.892,11.869h-1.169V199.416h1.169Zm5.588,0h-3.29V199.416h3.29Z" transform="translate(-302.132 -189.976)" fill="#16415a"/>
        <path id="Path_300" data-name="Path 300" d="M2.568,60.573H20.758V64.4h2.568V59.886A1.883,1.883,0,0,0,21.44,58H1.886A1.883,1.883,0,0,0,0,59.886V73.107a1.883,1.883,0,0,0,1.886,1.886H9.559v2.1h-1.5a.45.45,0,0,0-.453.453v1.307a.45.45,0,0,0,.453.453h7.21a.45.45,0,0,0,.453-.453V77.543a.45.45,0,0,0-.453-.453h-1.5v-2.1H16.6V72.4H2.568Z" transform="translate(0 -58)" fill="#16415a"/>
      </g>
    </g>
  </g>
</svg>
