<?xml version="1.0" encoding="utf-8"?>
<!-- Generator: Adobe Illustrator 24.0.2, SVG Export Plug-In . SVG Version: 6.00 Build 0)  -->
<svg version="1.1" id="Layer_1" xmlns="http://www.w3.org/2000/svg" xmlns:xlink="http://www.w3.org/1999/xlink" x="0px" y="0px"
	 viewBox="0 0 200 64" style="enable-background:new 0 0 200 64;" xml:space="preserve">
<style type="text/css">
	.st0{fill:#1861D6;}
</style>
<g>
	<g>
		<path class="st0" d="M71.79,26.81h-2.31v-6.43h2.39v2.2c1.96,0,3.38,0.23,4.25,0.69c1.53,0.77,2.29,2.29,2.29,4.57l-0.04,1.1
			c2.01,0.37,3.64,1.23,4.9,2.6c1.48,1.61,2.21,3.7,2.21,6.28c0,2.24-0.71,4.24-2.14,5.99c-1.66,2.02-3.8,3.03-6.43,3.03
			c-3.12,0-5.5-0.91-7.13-2.72c-1.5-1.66-2.25-3.88-2.25-6.66c0-2.4,0.75-4.39,2.25-5.97c1.48-1.55,3.29-2.45,5.45-2.68
			c0-1.69-0.2-2.74-0.6-3.17c-0.4-0.43-1.05-0.65-1.97-0.65l-0.88,0.08V26.81z M70.91,37.46c0,1.66,0.37,3.03,1.1,4.12
			c0.95,1.45,2.41,2.17,4.37,2.17c1.74,0,3.06-0.43,3.98-1.29c1.12-1.04,1.68-2.71,1.68-5c0-1.71-0.48-3.08-1.45-4.12
			c-0.99-1.02-2.4-1.52-4.21-1.52c-1.85,0-3.27,0.63-4.25,1.88C71.31,34.71,70.91,35.97,70.91,37.46z"/>
		<path class="st0" d="M102.37,39.68c0,2.22-0.38,3.83-1.14,4.84c-1.31,1.8-3.82,2.7-7.54,2.7c-1.36,0-2.52-0.11-3.49-0.33
			c-0.99-0.21-1.84-0.49-2.53-0.84l0.84-2.8c1.99,0.56,3.71,0.84,5.17,0.84c1.99,0,3.35-0.22,4.09-0.65
			c0.91-0.54,1.37-1.52,1.37-2.96v-8.42c0-0.91-0.55-1.85-1.65-2.82c-0.91-0.8-1.97-1.4-3.17-1.8c-1.53-0.51-2.57-1.31-3.13-2.41
			c-0.59-1.07-0.88-2.63-0.88-4.68h3.29c0,1.62,0.29,2.8,0.88,3.53c0.33,0.37,1.03,0.82,2.1,1.35c1.41,0.68,2.61,1.47,3.6,2.37
			c1.25,1.15,1.98,2.37,2.17,3.66V39.68z"/>
		<path class="st0" d="M122.87,29.48v3.98h-3.1v-3.41c0-2.22-0.64-3.91-1.92-5.09c-1.1-0.99-2.46-1.49-4.09-1.49
			c-1.48,0-2.73,0.6-3.76,1.8c-1.07,1.24-1.61,2.83-1.61,4.78v8.53c0,1.45,0.56,2.63,1.68,3.54c1.1,0.93,2.51,1.39,4.25,1.39
			c0.85,0,1.67-0.07,2.45-0.2c0.74-0.13,1.65-0.35,2.72-0.65l0.84,2.82c-0.69,0.34-1.52,0.62-2.49,0.84
			c-0.99,0.21-2.17,0.31-3.53,0.31c-2.86,0-5.09-0.76-6.7-2.29c-1.79-1.68-2.68-3.75-2.68-6.21v-9.6c0-2.32,0.89-4.28,2.68-5.86
			c1.76-1.54,3.81-2.31,6.13-2.31c2.19,0,4.15,0.65,5.86,1.96C121.78,24.01,122.87,26.39,122.87,29.48z"/>
		<path class="st0" d="M139.52,39.68c0,2.22-0.38,3.83-1.14,4.84c-1.31,1.8-3.82,2.7-7.54,2.7c-1.36,0-2.52-0.11-3.49-0.33
			c-0.99-0.21-1.84-0.49-2.53-0.84l0.84-2.8c1.99,0.56,3.71,0.84,5.17,0.84c1.99,0,3.35-0.22,4.09-0.65
			c0.91-0.54,1.37-1.52,1.37-2.96v-8.42c0-0.91-0.55-1.85-1.65-2.82c-0.91-0.8-1.97-1.4-3.17-1.8c-1.53-0.51-2.57-1.31-3.13-2.41
			c-0.59-1.07-0.88-2.63-0.88-4.68h3.29c0,1.62,0.29,2.8,0.88,3.53c0.33,0.37,1.03,0.82,2.1,1.35c1.41,0.68,2.61,1.47,3.6,2.37
			c1.25,1.15,1.98,2.37,2.17,3.66V39.68z"/>
		<path class="st0" d="M142.01,26.6c0-2.35,0.76-4.06,2.29-5.13c1.04-0.72,2.3-1.08,3.78-1.08h10.45v3.1h-9.54
			c-1.4,0-2.36,0.44-2.9,1.33c-0.37,0.61-0.55,1.52-0.55,2.72l-0.04,9.1c0,2.22,0.37,3.95,1.12,5.21c0.89,1.47,2.2,2.21,3.94,2.21
			c1.44,0,2.62-0.29,3.57-0.88c1.38-0.89,2.2-2.39,2.45-4.51l0.08-0.47c0-1.74-0.56-3.17-1.68-4.29c-1.02-1.02-2.21-1.53-3.57-1.53
			c-0.94,0-1.84,0.14-2.7,0.43c-0.85,0.3-1.54,0.64-2.08,1.02v-3.41c0.67-0.46,1.4-0.77,2.21-0.94c0.8-0.13,1.77-0.2,2.92-0.2
			c1.93,0,3.67,0.7,5.21,2.1c1.85,1.66,2.78,3.84,2.78,6.54l-0.08,0.47c0,2.32-0.65,4.28-1.94,5.86c-1.58,1.93-3.87,2.9-6.89,2.9
			h-0.31c-2.81,0-5.01-1.12-6.61-3.37c-1.27-1.75-1.9-3.57-1.9-5.47V26.6z"/>
		<path class="st0" d="M171.69,32.38l0.27-3.1c1.92,0,3.66,0.7,5.21,2.1c1.85,1.66,2.78,3.84,2.78,6.54v0.47
			c0,2.32-0.65,4.28-1.94,5.86c-1.58,1.93-3.88,2.9-6.9,2.9h-0.31c-2.81,0-5.02-1.12-6.63-3.37c-1.27-1.75-1.9-3.57-1.9-5.47V20.39
			h3.53v16.24c0,2.22,0.37,3.96,1.12,5.21c0.89,1.48,2.2,2.21,3.94,2.21c1.44,0,2.63-0.29,3.57-0.88c1.38-0.89,2.2-2.39,2.45-4.51
			l0.08-0.47c0-1.74-0.56-3.17-1.68-4.29C174.24,32.89,173.05,32.38,171.69,32.38z"/>
		<path class="st0" d="M183.23,46.58V27.63c0-2.08,0.7-3.83,2.1-5.25c1.36-1.4,3.23-2.1,5.6-2.1c1.58,0,3.03,0.44,4.35,1.33
			c1.82,1.23,2.72,2.99,2.72,5.29v19.67h-3.41V27.93c0-1.27-0.29-2.3-0.88-3.1c-0.71-0.97-1.72-1.45-3.06-1.45
			c-1.25,0-2.24,0.4-2.96,1.21c-0.76,0.82-1.21,1.84-1.37,3.04v18.95H183.23z"/>
	</g>
	<g>
		<g>
			<path class="st0" d="M30.32,5.62C15.16,4.6,2,17.1,2,32.79c0,9.66,5.1,18.64,13.28,23.64c1.55,0.94,3.49,0.95,5.04,0.01
				c0.02-0.01,0.05-0.03,0.07-0.04c1.82-1.11,2.39-3.44,1.37-5.31c-0.7-1.29-1.1-2.72-1.1-4.36c0-11.12,6.59-10.36,13.72-14.33
				c4.09-2.28,6.65-6.01,7.37-10.65c0.14-0.91,0.21-1.85,0.21-2.82C41.97,13.75,37.02,6.12,30.32,5.62z M30.06,30.55
				c-8.38,2.78-12.83,7.21-12.83,16.17c0,2.2,0.54,4.3,1.57,6.14c0.2,0.36,0.08,0.82-0.28,1.03h0c-0.23,0.13-0.52,0.14-0.75,0.01
				C10.17,49.64,5.43,41.52,5.43,32.79c0-12.38,9.45-22.6,21.29-24.06c4.55-0.56,8.98,1.85,10.84,6.03
				c0.01,0.03,0.02,0.05,0.04,0.08c0.61,1.38,0.93,2.8,0.93,4.08c0,1.13-0.14,2.27-0.44,3.38C37.15,25.83,34.62,29.04,30.06,30.55z"
				/>
		</g>
		<g>
			<path class="st0" d="M15.66,23.18c-1.19,0-2.17-0.97-2.17-2.17c0-1.19,0.97-2.17,2.17-2.17c1.19,0,2.17,0.97,2.17,2.17
				C17.82,22.2,16.85,23.18,15.66,23.18z"/>
		</g>
		<path class="st0" d="M39.32,7.81c1.61,1.32,2.94,2.97,3.88,4.86c0.3,0.61,0.75,1.14,1.29,1.57c5.49,4.43,8.99,11.21,8.99,18.8
			c0,10.63-6.87,19.65-16.41,22.88c-0.22,0.08-0.45-0.11-0.42-0.35c0.02-0.21,0.04-0.42,0.04-0.63c0-3.15-2.64-5.68-5.83-5.49
			c-2.66,0.16-4.86,2.26-5.13,4.91c-0.08,0.74-0.01,1.46,0.19,2.12c0.07,0.23-0.12,0.45-0.35,0.42c-0.41-0.06-0.82-0.14-1.23-0.23
			c-0.35-0.07-0.71,0.08-0.91,0.38c-0.56,0.85-1.41,1.5-2.41,1.79c-0.19,0.05-0.19,0.31-0.01,0.37c1.99,0.63,4.07,1.04,6.23,1.2
			c3.04,0.23,2.85-2.51,1.84-4.87c-0.55-1.27,0.67-2.79,2.12-2.79c1.4,0,2.69,1.52,2.17,2.79c-0.33,0.82-0.82,2.11-0.74,3.16
			c0.09,1.24,1.01,1.48,1.94,1.3c12.67-2.44,22.23-13.59,22.23-26.96c0-11.58-7.16-21.49-17.3-25.52
			C39.3,7.44,39.16,7.68,39.32,7.81z"/>
	</g>
</g>
</svg>
